<mxfile host="app.diagrams.net" agent="Mozilla/5.0 (Windows NT 10.0; Win64; x64) AppleWebKit/537.36 (KHTML, like Gecko) Chrome/128.0.0.0 Safari/537.36" version="24.7.14">
  <diagram name="Page-1" id="Iedl2vKX9EUVJg20klfz">
    <mxGraphModel dx="1050" dy="522" grid="1" gridSize="10" guides="1" tooltips="1" connect="1" arrows="1" fold="1" page="1" pageScale="1" pageWidth="827" pageHeight="1169" math="0" shadow="0">
      <root>
        <mxCell id="0" />
        <mxCell id="1" parent="0" />
        <mxCell id="o4bGId6ziIK7qVuna97k-12" style="edgeStyle=orthogonalEdgeStyle;rounded=0;orthogonalLoop=1;jettySize=auto;html=1;" edge="1" parent="1" source="o4bGId6ziIK7qVuna97k-1">
          <mxGeometry relative="1" as="geometry">
            <mxPoint x="610" y="390" as="targetPoint" />
          </mxGeometry>
        </mxCell>
        <mxCell id="o4bGId6ziIK7qVuna97k-1" value="&lt;font style=&quot;font-size: 18px;&quot;&gt;M2&lt;/font&gt;" style="rounded=0;whiteSpace=wrap;html=1;" vertex="1" parent="1">
          <mxGeometry x="294" y="360" width="126" height="60" as="geometry" />
        </mxCell>
        <mxCell id="o4bGId6ziIK7qVuna97k-11" style="edgeStyle=orthogonalEdgeStyle;rounded=0;orthogonalLoop=1;jettySize=auto;html=1;exitX=1;exitY=0.5;exitDx=0;exitDy=0;" edge="1" parent="1" source="o4bGId6ziIK7qVuna97k-2">
          <mxGeometry relative="1" as="geometry">
            <mxPoint x="610" y="270" as="targetPoint" />
          </mxGeometry>
        </mxCell>
        <mxCell id="o4bGId6ziIK7qVuna97k-2" value="&lt;font style=&quot;font-size: 18px;&quot;&gt;M1&lt;/font&gt;" style="rounded=0;whiteSpace=wrap;html=1;" vertex="1" parent="1">
          <mxGeometry x="294" y="240" width="120" height="60" as="geometry" />
        </mxCell>
        <mxCell id="o4bGId6ziIK7qVuna97k-3" style="edgeStyle=orthogonalEdgeStyle;rounded=0;orthogonalLoop=1;jettySize=auto;html=1;exitX=0.5;exitY=1;exitDx=0;exitDy=0;" edge="1" parent="1" source="o4bGId6ziIK7qVuna97k-1" target="o4bGId6ziIK7qVuna97k-1">
          <mxGeometry relative="1" as="geometry" />
        </mxCell>
        <mxCell id="o4bGId6ziIK7qVuna97k-13" style="edgeStyle=orthogonalEdgeStyle;rounded=0;orthogonalLoop=1;jettySize=auto;html=1;" edge="1" parent="1" source="o4bGId6ziIK7qVuna97k-4">
          <mxGeometry relative="1" as="geometry">
            <mxPoint x="610" y="520" as="targetPoint" />
          </mxGeometry>
        </mxCell>
        <mxCell id="o4bGId6ziIK7qVuna97k-4" value="&lt;font style=&quot;font-size: 18px;&quot;&gt;M3&lt;/font&gt;" style="rounded=0;whiteSpace=wrap;html=1;" vertex="1" parent="1">
          <mxGeometry x="294" y="490" width="120" height="60" as="geometry" />
        </mxCell>
        <mxCell id="o4bGId6ziIK7qVuna97k-7" style="edgeStyle=orthogonalEdgeStyle;rounded=0;orthogonalLoop=1;jettySize=auto;html=1;exitX=1;exitY=0.5;exitDx=0;exitDy=0;entryX=0;entryY=0.5;entryDx=0;entryDy=0;" edge="1" parent="1" source="o4bGId6ziIK7qVuna97k-5" target="o4bGId6ziIK7qVuna97k-1">
          <mxGeometry relative="1" as="geometry" />
        </mxCell>
        <mxCell id="o4bGId6ziIK7qVuna97k-5" value="&lt;font style=&quot;font-size: 18px;&quot;&gt;DATASET&lt;/font&gt;" style="rounded=0;whiteSpace=wrap;html=1;" vertex="1" parent="1">
          <mxGeometry x="30" y="360" width="120" height="60" as="geometry" />
        </mxCell>
        <mxCell id="o4bGId6ziIK7qVuna97k-6" value="" style="endArrow=classic;html=1;rounded=0;entryX=-0.033;entryY=0.647;entryDx=0;entryDy=0;entryPerimeter=0;" edge="1" parent="1" target="o4bGId6ziIK7qVuna97k-2">
          <mxGeometry width="50" height="50" relative="1" as="geometry">
            <mxPoint x="150" y="360" as="sourcePoint" />
            <mxPoint x="200" y="310" as="targetPoint" />
          </mxGeometry>
        </mxCell>
        <mxCell id="o4bGId6ziIK7qVuna97k-10" value="" style="endArrow=classic;html=1;rounded=0;" edge="1" parent="1">
          <mxGeometry width="50" height="50" relative="1" as="geometry">
            <mxPoint x="150" y="420" as="sourcePoint" />
            <mxPoint x="290" y="520" as="targetPoint" />
          </mxGeometry>
        </mxCell>
        <mxCell id="o4bGId6ziIK7qVuna97k-14" value="INPUT" style="text;html=1;align=center;verticalAlign=middle;resizable=0;points=[];autosize=1;strokeColor=none;fillColor=none;" vertex="1" parent="1">
          <mxGeometry x="460" y="238" width="60" height="30" as="geometry" />
        </mxCell>
        <mxCell id="o4bGId6ziIK7qVuna97k-15" value="INPUT" style="text;html=1;align=center;verticalAlign=middle;resizable=0;points=[];autosize=1;strokeColor=none;fillColor=none;" vertex="1" parent="1">
          <mxGeometry x="460" y="360" width="60" height="30" as="geometry" />
        </mxCell>
        <mxCell id="o4bGId6ziIK7qVuna97k-16" value="INPUT" style="text;html=1;align=center;verticalAlign=middle;resizable=0;points=[];autosize=1;strokeColor=none;fillColor=none;" vertex="1" parent="1">
          <mxGeometry x="465" y="478" width="60" height="30" as="geometry" />
        </mxCell>
        <mxCell id="o4bGId6ziIK7qVuna97k-17" value="CLASSIFICATION" style="text;html=1;align=center;verticalAlign=middle;resizable=0;points=[];autosize=1;strokeColor=none;fillColor=none;" vertex="1" parent="1">
          <mxGeometry x="590" y="198" width="120" height="30" as="geometry" />
        </mxCell>
        <mxCell id="o4bGId6ziIK7qVuna97k-18" value="1" style="text;html=1;align=center;verticalAlign=middle;resizable=0;points=[];autosize=1;strokeColor=none;fillColor=none;" vertex="1" parent="1">
          <mxGeometry x="635" y="255" width="30" height="30" as="geometry" />
        </mxCell>
        <mxCell id="o4bGId6ziIK7qVuna97k-19" value="0" style="text;html=1;align=center;verticalAlign=middle;resizable=0;points=[];autosize=1;strokeColor=none;fillColor=none;" vertex="1" parent="1">
          <mxGeometry x="635" y="375" width="30" height="30" as="geometry" />
        </mxCell>
        <mxCell id="o4bGId6ziIK7qVuna97k-20" value="1" style="text;html=1;align=center;verticalAlign=middle;resizable=0;points=[];autosize=1;strokeColor=none;fillColor=none;" vertex="1" parent="1">
          <mxGeometry x="635" y="505" width="30" height="30" as="geometry" />
        </mxCell>
        <mxCell id="o4bGId6ziIK7qVuna97k-21" value="REGRESSION" style="text;html=1;align=center;verticalAlign=middle;resizable=0;points=[];autosize=1;strokeColor=none;fillColor=none;" vertex="1" parent="1">
          <mxGeometry x="710" y="198" width="100" height="30" as="geometry" />
        </mxCell>
        <mxCell id="o4bGId6ziIK7qVuna97k-22" value="0.75" style="text;html=1;align=center;verticalAlign=middle;resizable=0;points=[];autosize=1;strokeColor=none;fillColor=none;" vertex="1" parent="1">
          <mxGeometry x="725" y="248" width="50" height="30" as="geometry" />
        </mxCell>
        <mxCell id="o4bGId6ziIK7qVuna97k-23" value="0.82" style="text;html=1;align=center;verticalAlign=middle;resizable=0;points=[];autosize=1;strokeColor=none;fillColor=none;" vertex="1" parent="1">
          <mxGeometry x="725" y="378" width="50" height="30" as="geometry" />
        </mxCell>
        <mxCell id="o4bGId6ziIK7qVuna97k-24" value="0.55" style="text;html=1;align=center;verticalAlign=middle;resizable=0;points=[];autosize=1;strokeColor=none;fillColor=none;" vertex="1" parent="1">
          <mxGeometry x="725" y="498" width="50" height="30" as="geometry" />
        </mxCell>
        <mxCell id="o4bGId6ziIK7qVuna97k-26" value="" style="endArrow=none;html=1;rounded=0;" edge="1" parent="1">
          <mxGeometry width="50" height="50" relative="1" as="geometry">
            <mxPoint x="585" y="550" as="sourcePoint" />
            <mxPoint x="790" y="550" as="targetPoint" />
          </mxGeometry>
        </mxCell>
        <mxCell id="o4bGId6ziIK7qVuna97k-30" value="1" style="text;html=1;align=center;verticalAlign=middle;resizable=0;points=[];autosize=1;strokeColor=none;fillColor=none;" vertex="1" parent="1">
          <mxGeometry x="635" y="558" width="30" height="30" as="geometry" />
        </mxCell>
        <mxCell id="o4bGId6ziIK7qVuna97k-31" value="0.70" style="text;html=1;align=center;verticalAlign=middle;resizable=0;points=[];autosize=1;strokeColor=none;fillColor=none;" vertex="1" parent="1">
          <mxGeometry x="725" y="558" width="50" height="30" as="geometry" />
        </mxCell>
        <mxCell id="o4bGId6ziIK7qVuna97k-32" value="&lt;font style=&quot;font-size: 36px;&quot;&gt;VOTING ENSEMBLE&lt;/font&gt;" style="text;html=1;align=center;verticalAlign=middle;resizable=0;points=[];autosize=1;strokeColor=none;fillColor=none;" vertex="1" parent="1">
          <mxGeometry x="210" y="33" width="370" height="60" as="geometry" />
        </mxCell>
      </root>
    </mxGraphModel>
  </diagram>
</mxfile>
